<svg width="1920" height="1080" viewBox="0 0 1920 1080" xmlns="http://www.w3.org/2000/svg">
	<rect width="1920" height="1080" fill="#ffffff" />
	<path d="M 0,1080 C 0,1080 0,216 0,216 C 191.35714285714283,179.28571428571428 382.71428571428567,142.57142857142858 539,153 C 695.2857142857143,163.42857142857142 816.4999999999998,221.00000000000006 940,251 C 1063.5000000000002,280.99999999999994 1189.2857142857144,283.4285714285714 1353,273 C 1516.7142857142856,262.5714285714286 1718.3571428571427,239.2857142857143 1920,216 C 1920,216 1920,1080 1920,1080 Z" fill="#009688" opacity="0.12" />
	<path d="M 0,1080 C 0,1080 0,432 0,432 C 125.85714285714283,420.42857142857144 251.71428571428567,408.85714285714283 423,386 C 594.2857142857143,363.14285714285717 810.9999999999998,329 1004,356 C 1197.0000000000002,383 1366.2857142857144,471.1428571428571 1515,494 C 1663.7142857142856,516.8571428571429 1791.8571428571427,474.42857142857144 1920,432 C 1920,432 1920,1080 1920,1080 Z" fill="#009688" opacity="0.24" />
	<path d="M 0,1080 C 0,1080 0,648 0,648 C 208.78571428571428,654.25 417.57142857142856,660.5 548,645 C 678.4285714285714,629.5 730.5,592.25 884,602 C 1037.5,611.75 1292.4285714285713,668.5 1482,684 C 1671.5714285714287,699.5 1795.7857142857142,673.75 1920,648 C 1920,648 1920,1080 1920,1080 Z" fill="#009688" opacity="0.36" />
	<path d="M 0,1080 C 0,1080 0,864 0,864 C 125.67857142857144,854 251.3571428571429,844 404,852 C 556.6428571428571,860 736.25,886.0000000000001 896,903 C 1055.75,919.9999999999999 1195.642857142857,928 1363,920 C 1530.357142857143,912 1725.1785714285716,888 1920,864 C 1920,864 1920,1080 1920,1080 Z" fill="#009688" opacity="0.48" />
</svg>
